<?xml version="1.0" standalone="no"?>
<!DOCTYPE svg PUBLIC "-//W3C//DTD SVG 20010904//EN"
 "http://www.w3.org/TR/2001/REC-SVG-20010904/DTD/svg10.dtd">
<svg version="1.0" xmlns="http://www.w3.org/2000/svg"
 width="763.000000pt" height="737.000000pt" viewBox="0 0 763.000000 737.000000"
 preserveAspectRatio="xMidYMid meet">

<g transform="translate(0.000000,737.000000) scale(0.100000,-0.100000)"
fill="#000000" stroke="none">
<path d="M10 6213 c0 -720 4 -1182 10 -1238 87 -760 586 -1404 1319 -1702 287
-116 686 -174 996 -144 163 16 306 42 280 51 -11 4 -85 28 -165 54 -705 226
-1249 834 -1395 1560 -42 209 -45 305 -45 1464 l0 1102 -500 0 -500 0 0 -1147z"/>
<path d="M3889 3993 c-74 -102 -250 -287 -360 -379 -193 -160 -447 -299 -696
-379 -81 -26 -157 -51 -168 -55 -14 -5 7 -12 70 -23 541 -98 1091 10 1545 304
100 64 260 187 260 199 0 4 -118 90 -262 190 -145 101 -277 194 -294 207 l-31
23 -64 -87z"/>
</g>
</svg>
